<?xml version="1.0" standalone="no"?>
<!DOCTYPE svg PUBLIC "-//W3C//DTD SVG 20010904//EN"
 "http://www.w3.org/TR/2001/REC-SVG-20010904/DTD/svg10.dtd">
<svg version="1.0" xmlns="http://www.w3.org/2000/svg"
 width="247.000000pt" height="328.000000pt" viewBox="0 0 247.000000 328.000000"
 preserveAspectRatio="xMidYMid meet">
<metadata>
Created by potrace 1.16, written by Peter Selinger 2001-2019
</metadata>
<g transform="translate(0.000000,328.000000) scale(0.100000,-0.100000)"
fill="#000000" stroke="none">
<path d="M528 3143 c-71 -73 -156 -204 -218 -337 -75 -161 -90 -219 -90 -355
0 -97 -3 -123 -20 -156 -11 -22 -20 -48 -20 -59 0 -10 16 -91 36 -179 l35
-159 -36 -152 c-44 -181 -44 -244 2 -379 l30 -89 -20 -76 c-15 -60 -20 -113
-21 -242 -1 -157 1 -169 27 -245 84 -238 279 -415 611 -555 135 -58 390 -142
431 -143 17 0 86 16 155 37 330 101 567 226 721 381 121 123 180 236 205 400
16 101 12 179 -17 337 l-19 106 30 90 c48 145 48 181 1 367 l-40 160 34 155
c39 172 42 215 20 247 -11 16 -16 57 -19 151 -4 105 -9 144 -30 206 -34 99
-114 260 -181 361 -49 73 -160 195 -168 184 -1 -2 -17 -54 -35 -115 -17 -61
-47 -147 -65 -190 -31 -75 -35 -79 -63 -77 -16 1 -75 5 -131 9 -105 7 -234 -5
-334 -31 -46 -12 -60 -12 -142 8 -76 17 -120 21 -247 19 -85 -1 -170 -3 -188
-4 -32 -3 -35 -1 -58 57 -27 64 -76 212 -94 283 -6 23 -14 42 -18 42 -4 0 -33
-26 -64 -57z m-4 -365 l7 -108 -87 -100 c-77 -89 -104 -113 -104 -95 0 26 35
165 51 203 45 105 114 231 120 219 4 -6 10 -60 13 -119z m1601 0 c67 -138 99
-236 93 -288 -3 -29 -6 -26 -97 76 l-94 106 7 77 c8 98 17 161 23 161 2 0 33
-60 68 -132z m-946 -112 l103 -24 102 25 c278 66 479 26 613 -121 69 -77 199
-249 225 -299 l19 -39 -30 -141 c-33 -153 -36 -184 -21 -236 5 -18 19 -78 30
-133 l21 -100 -27 -45 c-24 -42 -229 -263 -243 -263 -3 0 -16 26 -29 58 -28
73 -76 131 -153 182 -32 22 -60 40 -62 40 -2 0 18 -44 45 -97 50 -98 50 -98
60 -238 7 -106 18 -171 45 -267 19 -71 37 -145 40 -167 5 -37 3 -41 -38 -71
-81 -58 -128 -82 -152 -76 -13 3 -66 43 -118 89 -52 46 -126 105 -164 132 -90
62 -95 69 -95 126 0 42 4 50 33 70 48 34 108 86 122 106 12 17 9 18 -40 18
-65 0 -95 22 -95 71 0 23 6 37 21 44 27 15 44 7 61 -27 12 -24 20 -28 51 -27
46 2 65 17 73 60 9 48 -1 79 -42 124 -58 64 -194 92 -342 71 -151 -22 -229
-101 -202 -203 12 -43 13 -44 62 -53 35 -7 39 -5 55 24 33 57 83 49 83 -14 0
-48 -40 -78 -97 -73 -24 2 -43 1 -43 -2 0 -9 80 -83 123 -114 35 -25 37 -30
37 -82 l0 -54 -67 -48 c-37 -26 -94 -71 -127 -100 -97 -84 -177 -142 -195
-142 -16 0 -140 77 -170 106 -17 16 -7 72 40 224 23 73 32 127 39 230 9 145
17 176 74 289 21 40 31 69 24 65 -115 -68 -162 -116 -207 -215 l-27 -61 -81
79 c-44 43 -103 107 -131 142 -63 79 -64 90 -22 264 l30 124 -34 154 -33 154
24 44 c78 144 262 354 347 396 123 60 286 67 485 21z m196 -1897 c88 -60 152
-115 143 -124 -13 -14 -175 -44 -233 -44 -54 0 -229 30 -240 41 -16 16 228
194 248 181 7 -4 44 -28 82 -54z"/>
<path d="M1088 2055 c5 -100 -6 -136 -53 -165 l-32 -20 -158 76 c-176 86 -199
89 -300 44 -46 -20 -48 -23 -30 -34 28 -16 67 -58 90 -97 11 -18 38 -44 60
-56 34 -19 55 -23 141 -23 112 0 114 -1 114 -67 l0 -36 48 44 c26 24 74 62
105 84 111 77 102 60 90 164 -8 72 -16 99 -38 131 -15 22 -31 40 -35 40 -3 0
-4 -38 -2 -85z"/>
<path d="M1447 2110 c-32 -37 -44 -76 -52 -165 l-6 -71 71 -48 c39 -27 93 -69
121 -94 27 -24 52 -42 55 -39 3 3 8 24 11 46 l6 41 104 0 c135 0 170 18 225
118 9 17 33 39 53 50 l37 19 -53 23 c-103 44 -124 41 -302 -44 -170 -82 -170
-82 -217 -31 -23 25 -25 33 -24 126 1 54 0 99 -1 99 -2 0 -14 -13 -28 -30z"/>
</g>
</svg>
