<?xml version="1.0" encoding="UTF-8"?>
<svg version="1.1" xmlns="http://www.w3.org/2000/svg" width="1408" height="768">
<path d="M0 0 C464.64 0 929.28 0 1408 0 C1408 253.44 1408 506.88 1408 768 C943.36 768 478.72 768 0 768 C0 514.56 0 261.12 0 0 Z " fill="#F7FAFA" transform="translate(0,0)"/>
<path d="M0 0 C0.20753906 0.91136719 0.41507813 1.82273438 0.62890625 2.76171875 C2.54943029 10.93037625 4.8426603 18.91438272 7.5 26.875 C7.92647827 28.15636841 7.92647827 28.15636841 8.36157227 29.46362305 C10.14194555 34.71549605 12.11143653 39.85561814 14.24804688 44.97314453 C15 47 15 47 15 49 C15.7321875 48.7834375 16.464375 48.566875 17.21875 48.34375 C35.28882306 43.69715979 53.60606921 45.56827629 71.71484375 49.02734375 C81.75169714 51.0531748 81.75169714 51.0531748 91.75 49.6875 C110.89871863 44.48248671 131.51782055 44.29280957 151 48 C157.1954848 32.21198411 162.51415624 16.35678449 167 0 C190.66317845 11.12988823 203.53762978 45.78065805 211.87890625 68.52734375 C215.13426849 78.61102678 215.34772726 87.71136066 215.390625 98.29101562 C215.514354 104.92082774 215.75906784 110.10568888 219.24462891 115.85961914 C221.0488301 120.97191128 218.54808209 127.28186834 217.37109375 132.40234375 C217.05499527 133.80135478 216.73925089 135.20044585 216.42382812 136.59960938 C215.93160334 138.77035257 215.43682912 140.94040387 214.93579102 143.10913086 C214.4481268 145.22602052 213.97138363 147.34514629 213.49609375 149.46484375 C213.20919678 150.719021 212.9222998 151.97319824 212.62670898 153.26538086 C211.67251575 158.95151015 211.5786004 164.31440158 212.98828125 169.953125 C213.19880127 170.81365479 213.40932129 171.67418457 213.6262207 172.56079102 C213.85269287 173.44822998 214.07916504 174.33566895 214.3125 175.25 C214.5396167 176.17804443 214.7667334 177.10608887 215.00073242 178.06225586 C215.95119728 181.92797516 216.93814719 185.77650839 218 189.61328125 C222.15069441 204.67950374 219.19970177 218.60926098 213.515625 232.91015625 C212.18241286 238.31370547 213.18901632 243.31949537 214.42382812 248.60864258 C218.81263428 267.77619556 219.6991881 289.28847462 213 308 C212.68804688 308.92039062 212.37609375 309.84078125 212.0546875 310.7890625 C208.16252808 321.35349521 202.43009393 330.57922688 195 339 C194.29488281 339.80050781 193.58976563 340.60101562 192.86328125 341.42578125 C172.86254923 362.71688308 143.12353771 376.15089178 115.796875 385.07910156 C112.69979917 386.09884406 109.61617711 387.15504116 106.53125 388.2109375 C104.31299828 388.95461294 102.09425382 389.69682035 99.875 390.4375 C98.8442334 390.79207275 97.8134668 391.14664551 96.75146484 391.51196289 C86.11425784 394.99067305 78.06746979 394.54674075 67.5 391.125 C66.51515625 390.81401367 65.5303125 390.50302734 64.515625 390.18261719 C34.93731963 380.64212736 6.14334789 368.93619024 -18 349 C-18.99193359 348.20916016 -18.99193359 348.20916016 -20.00390625 347.40234375 C-36.83905569 333.46639813 -48.87855391 311.9068773 -51 290 C-51.8952214 275.40735826 -51.27213049 261.13196333 -47.45214844 246.96875 C-45.32466555 239.04415764 -46.1989684 233.57656184 -48.9375 225.9375 C-55.10874744 208.39741157 -53.33201308 194.19300933 -48.49023438 176.41796875 C-44.90554311 162.96990092 -46.20930363 152.57466895 -49.5 139.3125 C-54.53369175 118.86644527 -54.53369175 118.86644527 -51.5390625 113.26953125 C-49.16740517 108.23126428 -49.46517049 103.19112036 -49.375 97.6875 C-48.89385288 77.34700551 -48.89385288 77.34700551 -45.625 68.375 C-45.37024902 67.66698242 -45.11549805 66.95896484 -44.85302734 66.22949219 C-39.22657013 51.16334058 -19.60657396 0 0 0 Z " fill="#44494C" transform="translate(621,187)"/>
<path d="M0 0 C9.39848316 2.29610976 17.55731507 0.24309004 26.72265625 -2.10546875 C45.79179892 -6.82916142 68.73790461 -5.72289347 85.98828125 4.1953125 C88.05387764 5.65685923 89.90183844 7.21809964 91.7734375 8.921875 C92.99740234 10.02595703 92.99740234 10.02595703 94.24609375 11.15234375 C105.28391151 21.65018193 114.37696521 34.25519681 122.7734375 46.921875 C123.20398438 47.540625 123.63453125 48.159375 124.078125 48.796875 C127.24478373 53.68881675 127.39730105 58.3419722 126.42456055 63.92382812 C125.96160635 65.91748198 125.44365312 67.8866945 124.8984375 69.859375 C124.53092769 71.27205161 124.1637373 72.68481135 123.796875 74.09765625 C123.22819677 76.22260276 122.65476686 78.34635076 122.0625 80.46484375 C118.80748741 93.0367402 121.22397686 104.16874123 124.63867188 116.39477539 C128.17686036 129.25222457 128.17686036 129.25222457 125.76953125 135.546875 C118.56014306 146.53260939 109.04590463 155.68223076 99.7734375 164.921875 C98.443125 166.3140625 98.443125 166.3140625 97.0859375 167.734375 C94.7734375 169.921875 94.7734375 169.921875 92.7734375 169.921875 C92.62648438 169.31601562 92.47953125 168.71015625 92.328125 168.0859375 C87.95598746 151.75323978 77.8751122 143.35652155 63.7734375 134.921875 C64.96200942 137.39139489 66.25068643 139.75579405 67.61328125 142.13671875 C74.03765558 153.41100034 76.76531679 162.9491049 76.96850586 175.9375 C77.1899902 189.48249802 79.52835503 200.73313513 83.96044922 213.49414062 C85.64356559 218.52023947 86.95381681 223.6841085 87.7734375 228.921875 C87.93328125 229.91703125 88.093125 230.9121875 88.2578125 231.9375 C87.7734375 234.921875 87.7734375 234.921875 84.88671875 237.58984375 C83.6337383 238.45035625 82.36599254 239.28967941 81.0859375 240.109375 C80.46009766 240.53412109 79.83425781 240.95886719 79.18945312 241.39648438 C77.40106261 242.6006049 75.59450212 243.76792022 73.7734375 244.921875 C72.855625 245.50453125 71.9378125 246.0871875 70.9921875 246.6875 C67.88526533 248.41599895 66.29313896 248.54299879 62.7734375 247.921875 C57.80691876 245.13231051 53.7478166 241.00709498 49.5859375 237.171875 C40.71507684 229.0116634 31.188798 221.99870213 21.0390625 215.515625 C18.19336405 213.51382333 17.90127929 212.5918429 17.25390625 209.19921875 C16.92676896 205.46985368 16.90177831 202.57613853 17.7734375 198.921875 C21.29274498 195.09462812 25.36225906 192.61728767 29.7734375 189.921875 C33.4640047 187.28575557 35.65256296 184.94037413 37.7734375 180.921875 C36.45279297 181.00888672 36.45279297 181.00888672 35.10546875 181.09765625 C25.62172461 181.46605919 25.62172461 181.46605919 21.4609375 178.796875 C19.47237382 175.4089517 19.03478071 173.77930489 19.7734375 169.921875 C21.4609375 167.484375 21.4609375 167.484375 23.7734375 165.921875 C26.3359375 165.796875 26.3359375 165.796875 28.7734375 166.921875 C30.5859375 169.984375 30.5859375 169.984375 31.7734375 172.921875 C37.74839534 173.40214159 37.74839534 173.40214159 43.3359375 171.609375 C45.71917041 167.15376565 45.55662546 162.84574368 44.7734375 157.921875 C42.01911442 150.85439918 37.21778151 147.62097284 30.56640625 144.33984375 C24.60566012 142.15139351 18.3115213 142.47492122 12.04736328 142.53076172 C9.90982724 142.5467896 7.77419594 142.53088675 5.63671875 142.51171875 C-5.92094992 142.49147191 -14.86120016 143.58231405 -23.44140625 151.875 C-27.46238297 156.48548535 -27.5489862 161.01077375 -27.2265625 166.921875 C-26.7315625 169.396875 -26.7315625 169.396875 -26.2265625 171.921875 C-21.9365625 172.581875 -17.6465625 173.241875 -13.2265625 173.921875 C-12.2365625 170.951875 -12.2365625 170.951875 -11.2265625 167.921875 C-10.5665625 167.261875 -9.9065625 166.601875 -9.2265625 165.921875 C-5.92941457 166.25158979 -4.6038786 166.5445589 -2.2265625 168.921875 C-1.68129242 173.0503485 -1.79450183 175.21206105 -3.9765625 178.796875 C-8.79061293 181.94452336 -13.58119616 181.82283349 -19.2265625 181.921875 C-15.89058209 186.3063064 -12.79315406 189.26040217 -8.15063477 192.28125 C-3.85377507 195.15476399 -0.67812423 197.3153573 0.7890625 202.53515625 C0.89920506 206.32327361 0.87979949 209.29191046 -0.2265625 212.921875 C-2.390625 215.05078125 -2.390625 215.05078125 -5.2265625 216.921875 C-6.2475 217.64503906 -7.2684375 218.36820313 -8.3203125 219.11328125 C-8.86929199 219.49508545 -9.41827148 219.87688965 -9.98388672 220.27026367 C-19.45821839 226.87097135 -28.10441155 234.2523587 -36.7265625 241.921875 C-43.30473539 247.66057395 -43.30473539 247.66057395 -47.8984375 248.28515625 C-52.45922378 247.78732395 -55.16865519 245.78365787 -58.8515625 243.171875 C-59.50640625 242.7284375 -60.16125 242.285 -60.8359375 241.828125 C-62.66745337 240.56756752 -64.44594702 239.25284011 -66.2265625 237.921875 C-67.05929687 237.35984375 -67.89203125 236.7978125 -68.75 236.21875 C-71.30307815 232.24729511 -70.15220994 228.37692179 -69.2265625 223.921875 C-68.03931294 219.269724 -66.65660876 214.69202325 -65.2265625 210.109375 C-64.49553825 207.72843413 -63.7662998 205.34694404 -63.0390625 202.96484375 C-62.71550781 201.92352295 -62.39195312 200.88220215 -62.05859375 199.80932617 C-60.85269148 195.62440653 -60.11647725 191.72048863 -60.015625 187.3671875 C-59.51607256 170.86483845 -57.47249452 157.28323914 -49.96875 142.40625 C-48.19617901 139.06642678 -48.19617901 139.06642678 -47.2265625 135.921875 C-61.10944808 144.62181663 -69.9436055 153.07300401 -75.2265625 168.921875 C-78.70561929 167.42528372 -80.99197716 165.42678586 -83.67578125 162.7734375 C-84.52043945 161.9388501 -85.36509766 161.1042627 -86.23535156 160.24438477 C-108.59006229 137.73279173 -108.59006229 137.73279173 -109.1015625 128.859375 C-108.57266378 121.45479296 -106.47616348 114.31129028 -104.41796875 107.20703125 C-100.79606372 94.47925363 -103.12133575 84.24079449 -106.3112793 71.75244141 C-106.81493755 69.76694366 -107.30443146 67.77832571 -107.79296875 65.7890625 C-108.09146729 64.61456543 -108.38996582 63.44006836 -108.69750977 62.22998047 C-110.1584695 53.09476849 -104.96118545 47.14128184 -99.89892578 40.06640625 C-71.90938792 1.44951546 -71.90938792 1.44951546 -48.93359375 -3.609375 C-32.50204763 -5.68712583 -15.97903196 -4.12589318 0 0 Z " fill="#FDFDFD" transform="translate(695.2265625,254.078125)"/>
<path d="M0 0 C0.66 0 1.32 0 2 0 C11.13605247 10.93857093 18.8130142 23.53453319 20.12304688 37.765625 C21.01672036 46.93219607 21.01672036 46.93219607 25.59545898 54.59667969 C27.58595251 56.04253384 29.61226996 57.28277367 31.75 58.5 C32.49991211 58.95503906 33.24982422 59.41007812 34.02246094 59.87890625 C36.33518257 61.27607422 38.66654228 62.63782925 41 64 C42.42896533 64.86146926 43.85612767 65.72593808 45.28125 66.59375 C48.83902003 68.75547642 52.41629781 70.88155536 56 73 C56.88171875 73.61875 57.7634375 74.2375 58.671875 74.875 C60.91480491 76.28617466 60.91480491 76.28617466 63.07421875 75.3515625 C64.02748047 74.68253906 64.02748047 74.68253906 65 74 C65.62519531 73.57460938 66.25039063 73.14921875 66.89453125 72.7109375 C68.17037957 71.82226107 69.44127519 70.92643048 70.70703125 70.0234375 C77.01151989 67.20950901 83.35080614 69.75191918 89.65551758 71.49121094 C113.01401833 77.93472019 131.9796581 76.88659862 155 69 C161.27028442 68.03534086 164.54079779 70.26011641 169.47265625 73.78515625 C172.83043603 75.39917404 174.44842446 75.02119093 178 74 C182.8799056 71.72707753 187.43090801 68.83806167 192 66 C192.87962402 65.4548877 193.75924805 64.90977539 194.66552734 64.34814453 C197.54261065 62.54706768 200.39851795 60.71630378 203.25 58.875 C204.17949463 58.28952393 205.10898926 57.70404785 206.06665039 57.10083008 C211.05036793 53.87852325 211.05036793 53.87852325 214.53125 49.2109375 C215.05121131 45.6492025 215.53835471 42.09019981 215.93676758 38.51269531 C216.97376769 29.36640283 218.24036234 22.41119641 224 15 C225.08919455 13.29539766 226.17267567 11.58712913 227.25 9.875 C228.703125 7.6171875 228.703125 7.6171875 230 6 C230.66 6 231.32 6 232 6 C232.66 4.02 233.32 2.04 234 0 C234.66 0 235.32 0 236 0 C240.19585976 14.9398674 237.19517666 35.50643681 230 49 C218.67654239 67.56864779 202.79470864 78.83237073 184 89 C183.29746094 89.39832031 182.59492187 89.79664063 181.87109375 90.20703125 C170.90028646 96.15448833 158.21869544 99.03336435 146 101 C144.98196289 101.16991455 143.96392578 101.3398291 142.91503906 101.51489258 C134.52697264 102.82838273 126.36042525 103.35222416 117.875 103.3125 C116.61598877 103.30758545 115.35697754 103.3026709 114.05981445 103.29760742 C81.7909609 102.89643264 52.93029503 91.97064875 27 73 C26.22011719 72.45988281 25.44023438 71.91976562 24.63671875 71.36328125 C24.09660156 70.91339844 23.55648437 70.46351563 23 70 C23 69.34 23 68.68 23 68 C22.44183594 67.7834375 21.88367188 67.566875 21.30859375 67.34375 C9.95178074 60.73335461 4.17660448 45.83837219 0.83349609 33.93603516 C-0.70949663 27.41055941 -0.41996913 20.78648245 -0.25 14.125 C-0.2298608 12.74351611 -0.21162341 11.36200315 -0.1953125 9.98046875 C-0.14877271 6.65287365 -0.0834116 3.32683963 0 0 Z " fill="#3362BB" transform="translate(586,449)"/>
<path d="M0 0 C3.52702349 1.62520155 5.06368457 3.08827278 7.1875 6.375 C7.69667969 7.14585937 8.20585938 7.91671875 8.73046875 8.7109375 C12.7160003 15.89715747 12.88847431 27.16632881 11 35 C7.6542756 39.04860768 3.67591426 40.76153041 -1 43 C-2.79140575 44.29889676 -4.54490435 45.65221061 -6.25 47.0625 C-7.44689453 48.03896484 -7.44689453 48.03896484 -8.66796875 49.03515625 C-11.65959178 51.55573646 -14.59828412 54.13084766 -17.50390625 56.75 C-19 58 -19 58 -20 58 C-20 54.04 -20 50.08 -20 46 C-21.62808594 46.04640625 -23.25617187 46.0928125 -24.93359375 46.140625 C-27.10154404 46.17816526 -29.26951432 46.21456299 -31.4375 46.25 C-32.50677734 46.28351563 -33.57605469 46.31703125 -34.67773438 46.3515625 C-42.74503368 46.45024506 -49.04542779 45.37144038 -55.3046875 40.03515625 C-56.08199219 39.05869141 -56.08199219 39.05869141 -56.875 38.0625 C-57.43058594 37.37027344 -57.98617187 36.67804688 -58.55859375 35.96484375 C-63 29.91056911 -63 29.91056911 -63 27 C-63.7425 26.71125 -64.485 26.4225 -65.25 26.125 C-67.56739797 25.17697356 -69.77917115 24.15154089 -72 23 C-72 22.34 -72 21.68 -72 21 C-69.7164152 19.97695401 -67.42605028 18.98237147 -65.125 18 C-64.49335937 17.71382813 -63.86171875 17.42765625 -63.2109375 17.1328125 C-57.19093295 14.60441059 -51.46926392 13.40494728 -45.14428711 15.66229248 C-39.94222598 17.81322345 -34.94724661 20.37833148 -29.9375 22.9375 C-28.40257322 23.70164104 -26.86677144 24.4640271 -25.33007812 25.22460938 C-14.27090752 30.72909248 -14.27090752 30.72909248 -13 32 C-9.24717288 32.42645763 -7.47447897 32.30194116 -4.25 30.25 C-1.38158626 27.38158626 -0.12146578 25.4215415 0.22705078 21.34277344 C0.21657715 20.35825195 0.20610352 19.37373047 0.1953125 18.359375 C0.18886719 17.28945313 0.18242188 16.21953125 0.17578125 15.1171875 C0.15902344 14.00601562 0.14226562 12.89484375 0.125 11.75 C0.11597656 10.62335938 0.10695313 9.49671875 0.09765625 8.3359375 C0.07410658 5.55707635 0.0412168 2.7786461 0 0 Z " fill="#454C4E" transform="translate(679,318)"/>
<path d="M0 0 C-0.01571045 0.66531738 -0.0314209 1.33063477 -0.04760742 2.01611328 C-0.11025597 5.0523212 -0.14908509 8.08839272 -0.1875 11.125 C-0.21263672 12.17171875 -0.23777344 13.2184375 -0.26367188 14.296875 C-0.31718119 19.93318923 -0.31965595 24.1954394 3 29 C5.73849747 31.60431179 5.73849747 31.60431179 9 33 C13.35020173 31.68466791 17.34679886 29.36148322 21.390625 27.3046875 C22.83674751 26.58104705 24.28337866 25.85842235 25.73046875 25.13671875 C27.99065007 24.00883386 30.24763236 22.87621084 32.49658203 21.72607422 C34.6823949 20.6103939 36.87875911 19.51835641 39.078125 18.4296875 C39.73782288 18.08598114 40.39752075 17.74227478 41.07720947 17.38815308 C46.90243936 14.54842867 52.25452878 14.20111723 58.58227539 15.55078125 C59.24735107 15.80214844 59.91242676 16.05351562 60.59765625 16.3125 C61.70463867 16.71855469 61.70463867 16.71855469 62.83398438 17.1328125 C63.93709961 17.56207031 63.93709961 17.56207031 65.0625 18 C66.21782227 18.42925781 66.21782227 18.42925781 67.39648438 18.8671875 C69.26922713 19.56510405 71.13536847 20.28069323 73 21 C73 21.66 73 22.32 73 23 C71.80375 23.474375 70.6075 23.94875 69.375 24.4375 C64.12178288 27.03626465 61.90569737 31.08672991 59 36 C55.22078023 41.66882966 50.31058357 43.89647214 44 46 C42.22833025 46.14835948 40.45232388 46.24770018 38.67578125 46.31640625 C37.64775391 46.35830078 36.61972656 46.40019531 35.56054688 46.44335938 C34.48869141 46.48267578 33.41683594 46.52199219 32.3125 46.5625 C30.68731445 46.62727539 30.68731445 46.62727539 29.02929688 46.69335938 C26.35301615 46.79946742 23.67652489 46.90024055 21 47 C20.67 50.3 20.34 53.6 20 57 C16.58212872 55.29106436 14.9564491 54.16705248 12.3125 51.625 C5.89781969 45.77093041 -1.32577056 40.99804735 -8.46875 36.08813477 C-10 35 -10 35 -11 34 C-11.69816971 22.84271103 -11.94890652 12.30194526 -4.375 3.375 C-1.21343874 0 -1.21343874 0 0 0 Z " fill="#444A4C" transform="translate(729,318)"/>
<path d="M0 0 C2.2032556 0.87694042 4.03038331 1.92886421 6.00952148 3.23657227 C6.76378418 3.73431152 7.51804687 4.23205078 8.29516602 4.74487305 C9.08391113 5.27709473 9.87265625 5.80931641 10.68530273 6.35766602 C11.89162354 7.1676001 11.89162354 7.1676001 13.12231445 7.99389648 C24.65988644 15.84841936 24.65988644 15.84841936 28.99780273 20.79516602 C28.99780273 21.45516602 28.99780273 22.11516602 28.99780273 22.79516602 C25.04281547 23.64492328 21.08338177 24.47189959 17.12280273 25.29516602 C16.01420898 25.53364258 14.90561523 25.77211914 13.76342773 26.01782227 C2.89577371 28.25528045 -6.10769552 28.0889194 -16.93969727 25.85766602 C-17.87104492 25.67526367 -18.80239258 25.49286133 -19.76196289 25.30493164 C-23.25818275 24.61073636 -26.61712651 23.92352293 -30.00219727 22.79516602 C-26.54865453 14.84811786 -17.71520185 9.96037908 -10.75219727 5.29516602 C-9.96329102 4.74602539 -9.17438477 4.19688477 -8.36157227 3.63110352 C-7.59844727 3.11805664 -6.83532227 2.60500977 -6.04907227 2.07641602 C-5.02571777 1.38128906 -5.02571777 1.38128906 -3.98168945 0.67211914 C-2.00219727 -0.20483398 -2.00219727 -0.20483398 0 0 Z " fill="#FAFAFA" transform="translate(705.002197265625,481.204833984375)"/>
<path d="M0 0 C2.88990898 2.68779595 4.83939915 5.15988046 6.62109375 8.67578125 C7.0795166 9.5788501 7.53793945 10.48191895 8.01025391 11.41235352 C8.48124512 12.36940186 8.95223633 13.3264502 9.4375 14.3125 C10.16718994 15.79157837 10.16718994 15.79157837 10.91162109 17.30053711 C16.73397544 29.318323 20.74916264 40.47758575 21 54 C15.58849547 49.64726809 10.95777992 44.86654443 6.37890625 39.64453125 C4.15172748 37.06615721 4.15172748 37.06615721 2.02734375 35.26171875 C-0.92481889 32.560804 -1.89472808 30.79241044 -2.4296875 26.765625 C-2.59802396 17.75027245 -1.41184892 8.88708474 0 0 Z " fill="#F7F7F6" transform="translate(799,224)"/>
<path d="M0 0 C0.33 0 0.66 0 1 0 C1.79265413 4.98947464 2.44637726 9.97957016 3 15 C3.11867432 16.00063477 3.11867432 16.00063477 3.23974609 17.02148438 C3.83671582 22.61546642 4.34621788 27.75738224 1.375 32.70703125 C-0.8125 35.125 -0.8125 35.125 -3.2734375 37.4375 C-7.01622681 40.95507849 -10.13574804 44.90608759 -13.3684082 48.88720703 C-14.53714886 50.29393422 -15.76398311 51.65200209 -17 53 C-17.66 53 -18.32 53 -19 53 C-20.85241763 35.50494456 -9.40512139 14.10768208 0 0 Z " fill="#F5F6F5" transform="translate(608,224)"/>
<path d="M0 0 C-0.00523682 0.67579102 -0.01047363 1.35158203 -0.01586914 2.04785156 C-0.03668007 5.11522489 -0.04967329 8.18258333 -0.0625 11.25 C-0.07087891 12.31347656 -0.07925781 13.37695312 -0.08789062 14.47265625 C-0.09111328 15.49746094 -0.09433594 16.52226562 -0.09765625 17.578125 C-0.10289307 18.52075195 -0.10812988 19.46337891 -0.11352539 20.43457031 C-0.09486395 22.94943394 -0.09486395 22.94943394 0.56469727 25.10449219 C1.29303159 28.27599399 -0.01324081 30.98167777 -1 34 C-1.66 34 -2.32 34 -3 34 C-3 34.99 -3 35.98 -3 37 C-4.485 37.495 -4.485 37.495 -6 38 C-8.65625 36.5390625 -8.65625 36.5390625 -11 34 C-11.4671302 31.21565812 -11.62345094 29.13669103 -11.5 26.375 C-11.4801001 25.66150391 -11.4602002 24.94800781 -11.43969727 24.21289062 C-11.03811089 14.79638247 -9.05419946 8.37009478 -2.5234375 1.3984375 C-1 0 -1 0 0 0 Z " fill="#464B4D" transform="translate(729,318)"/>
<path d="M0 0 C4.455 0.99 4.455 0.99 9 2 C9 2.99 9 3.98 9 5 C9.87914062 5.10570312 10.75828125 5.21140625 11.6640625 5.3203125 C15.11314535 6.02305303 17.35884999 7.09715204 20.375 8.875 C29.7887201 14.40104808 39.10774411 16.03294791 49.75 17.625 C51.86664688 17.94907991 53.98290074 18.27557141 56.09893799 18.60360718 C58.00768911 18.89835998 59.91739595 19.18690412 61.82714844 19.47509766 C65 20 65 20 67.12524414 20.55957031 C69.42015425 21.09870533 71.5299685 21.12966086 73.88671875 21.1328125 C74.82580078 21.13410156 75.76488281 21.13539063 76.73242188 21.13671875 C77.70759766 21.13285156 78.68277344 21.12898437 79.6875 21.125 C80.64333984 21.12886719 81.59917969 21.13273438 82.58398438 21.13671875 C92.92988059 21.16393383 92.92988059 21.16393383 102.9765625 19.0078125 C107.0639222 17.64535927 111.10161643 17.29075183 115.375 16.875 C116.20644531 16.78863281 117.03789063 16.70226562 117.89453125 16.61328125 C119.92907147 16.40281157 121.9644597 16.20056686 124 16 C121.27304917 18.72695083 119.02608817 18.77925288 115.25 19.5 C114.03828125 19.7371875 112.8265625 19.974375 111.578125 20.21875 C110.05322284 20.48575828 108.52698957 20.74520038 107 21 C105.96311035 21.17426514 104.9262207 21.34853027 103.85791016 21.52807617 C95.49052358 22.83719939 87.3392926 23.35212522 78.875 23.3125 C77.61598877 23.30758545 76.35697754 23.3026709 75.05981445 23.29760742 C50.81977486 22.99624894 29.26980685 17.08082412 7.8125 5.8125 C7.1517749 5.46727295 6.4910498 5.1220459 5.81030273 4.76635742 C1.12243924 2.24487848 1.12243924 2.24487848 0 0 Z " fill="#3D60A0" transform="translate(625,529)"/>
<path d="M0 0 C7.28545094 0.50828727 16.34760279 2.78528675 21.890625 7.6640625 C22.25671875 8.10492188 22.6228125 8.54578125 23 9 C22.1875 10.9375 22.1875 10.9375 21 13 C15.75282664 14.74905779 10.80844425 14.66979417 5.625 12.75 C2.92220616 10.94813744 1.44991822 9.89983643 0 7 C-0.1875 3.25 -0.1875 3.25 0 0 Z " fill="#3260B7" transform="translate(629,342)"/>
<path d="M0 0 C0.54990817 5.63655874 -0.81829392 8.49258305 -4 13 C-7.38888848 14.34637556 -10.95620335 14.16698637 -14.5625 14.1875 C-15.69816406 14.20167969 -16.83382812 14.21585937 -18.00390625 14.23046875 C-21 14 -21 14 -24 12 C-23 9 -23 9 -20.05078125 7.24609375 C-18.80974262 6.63289031 -17.56335871 6.03041468 -16.3125 5.4375 C-15.39307617 4.98213867 -15.39307617 4.98213867 -14.45507812 4.51757812 C-5.17386642 0 -5.17386642 0 0 0 Z " fill="#3661B3" transform="translate(780,341)"/>
<path d="M0 0 C0 0.66 0 1.32 0 2 C-13.34525607 9.3550559 -27.11105404 13.04571084 -42 16 C-44.52162959 16.53794765 -47.04247961 17.07956375 -49.5625 17.625 C-51.70770175 18.08628038 -53.85347322 18.54492536 -56 19 C-56.77472656 19.19851563 -57.54945313 19.39703125 -58.34765625 19.6015625 C-62.22093279 20.18340964 -65.97310289 19.96158552 -69.875 19.75 C-71.16349854 19.68220337 -71.16349854 19.68220337 -72.47802734 19.61303711 C-79.5590255 19.18736521 -86.58754274 18.44675301 -93.625 17.5625 C-94.62644043 17.44036133 -95.62788086 17.31822266 -96.65966797 17.19238281 C-97.58924316 17.06831055 -98.51881836 16.94423828 -99.4765625 16.81640625 C-100.30236816 16.70756104 -101.12817383 16.59871582 -101.97900391 16.48657227 C-104 16 -104 16 -106 14 C-104.96488281 14.144375 -103.92976562 14.28875 -102.86328125 14.4375 C-69.25267185 18.74311781 -34.94748595 16.80366189 -4.375 1.1875 C-2 0 -2 0 0 0 Z " fill="#364A69" transform="translate(776,535)"/>
<path d="M0 0 C0.66 0.33 1.32 0.66 2 1 C0.98900246 3.35899427 0.05205636 4.94918847 -1.796875 6.75390625 C-11.33724688 16.48034922 -14.20563804 27.13939504 -15.59570312 40.43041992 C-16.48547667 48.24693467 -16.48547667 48.24693467 -18.87890625 51.75 C-23.73797153 55.25290564 -28.6608663 58.61682461 -33.6875 61.875 C-34.74517578 62.57625 -35.80285156 63.2775 -36.89257812 64 C-38.40561523 64.98613281 -38.40561523 64.98613281 -39.94921875 65.9921875 C-40.87049561 66.59401855 -41.79177246 67.19584961 -42.7409668 67.81591797 C-43.48644775 68.20666504 -44.23192871 68.59741211 -45 69 C-45.66 68.67 -46.32 68.34 -47 68 C-46.505 67.01 -46.505 67.01 -46 66 C-43.4375 65.375 -43.4375 65.375 -41 65 C-41 64.34 -41 63.68 -41 63 C-40.34 63 -39.68 63 -39 63 C-39 62.34 -39 61.68 -39 61 C-37.68 61 -36.36 61 -35 61 C-35 60.34 -35 59.68 -35 59 C-28.25 55 -28.25 55 -26 55 C-25.67 54.01 -25.34 53.02 -25 52 C-24.195625 51.62875 -23.39125 51.2575 -22.5625 50.875 C-19.20440061 48.4178541 -19.03168682 46.6373854 -18.3203125 42.66015625 C-17.97279645 39.77407784 -17.79546875 36.90167466 -17.625 34 C-17.22364263 28.27153569 -15.60846674 24.05197115 -13 19 C-12.32165413 17.33805262 -11.64800425 15.67401097 -11 14 C-10.34 14 -9.68 14 -9 14 C-9 13.01 -9 12.02 -9 11 C-7.66666667 9.66666667 -6.33333333 8.33333333 -5 7 C-3.98440599 5.00787329 -2.98210371 3.0088485 -2 1 C-1.34 0.67 -0.68 0.34 0 0 Z " fill="#364864" transform="translate(818,450)"/>
<path d="M0 0 C4.51219512 -0.36585366 4.51219512 -0.36585366 6.75 1.3125 C8 3 8 3 9 6 C9.61875 6.515625 10.2375 7.03125 10.875 7.5625 C14.04079289 11.19385067 14.83949814 15.3931593 16 20 C13.09709558 17.37009599 11.09132052 14.31939869 8.9375 11.0625 C8.24527344 10.02222656 7.55304687 8.98195313 6.83984375 7.91015625 C5.40361782 5.63841884 4.13094945 3.43183431 3 1 C2.34 1 1.68 1 1 1 C1.05447264 24.46648233 1.05447264 24.46648233 7 47 C7.37485087 48.65782258 7.72513506 50.32269915 8 52 C7.34 51.67 6.68 51.34 6 51 C6 50.34 6 49.68 6 49 C5.34 49 4.68 49 4 49 C4 47.35 4 45.7 4 44 C3.34 44 2.68 44 2 44 C-0.67836516 34.17932773 -1.16222485 24.78738475 -1.125 14.625 C-1.12886719 13.54605469 -1.13273438 12.46710938 -1.13671875 11.35546875 C-1.13542969 10.32292969 -1.13414062 9.29039062 -1.1328125 8.2265625 C-1.13168457 7.29408691 -1.13055664 6.36161133 -1.12939453 5.40087891 C-1 3 -1 3 0 0 Z " fill="#384962" transform="translate(585,448)"/>
<path d="M0 0 C4.42908378 -0.07460234 8.8578269 -0.12881371 13.28735352 -0.16479492 C14.79165017 -0.17980722 16.29590361 -0.20022353 17.80004883 -0.22631836 C19.97227696 -0.26303816 22.14392251 -0.27980161 24.31640625 -0.29296875 C25.62037354 -0.3086792 26.92434082 -0.32438965 28.26782227 -0.34057617 C32.52599297 0.04799897 35.19207376 1.13159476 39 3 C34.90319435 4.14404987 30.95946469 4.12609467 26.734375 4.09765625 C25.94097717 4.0962413 25.14757935 4.09482635 24.33013916 4.09336853 C21.80338728 4.08778415 19.27672496 4.07523454 16.75 4.0625 C15.03385545 4.05748298 13.31770951 4.05292043 11.6015625 4.04882812 C7.40100731 4.03781984 3.20051883 4.02056596 -1 4 C-0.67 2.68 -0.34 1.36 0 0 Z " fill="#3B4042" transform="translate(689,396)"/>
<path d="M0 0 C-0.66 0.33 -1.32 0.66 -2 1 C-2 1.66 -2 2.32 -2 3 C-0.35 3 1.3 3 3 3 C2.67 3.66 2.34 4.32 2 5 C-12.19 5 -26.38 5 -41 5 C-41 4.34 -41 3.68 -41 3 C-37.7 2.67 -34.4 2.34 -31 2 C-31 1.67 -31 1.34 -31 1 C-29.77023437 1.01160156 -28.54046875 1.02320313 -27.2734375 1.03515625 C-25.64062653 1.04454022 -24.0078139 1.05363977 -22.375 1.0625 C-21.56675781 1.07087891 -20.75851562 1.07925781 -19.92578125 1.08789062 C-13.19843384 1.11523757 -6.72415309 -0.13448306 0 0 Z " fill="#3A3F42" transform="translate(722,507)"/>
<path d="M0 0 C1 1 1 1 1.08984375 3.328125 C0.84301863 8.06210423 0.54125322 11.18812016 -2.125 15.1875 C-7.23417621 18.62276517 -15.19475147 17.76468696 -21 17 C-23.96484375 15.84375 -23.96484375 15.84375 -26 14 C-26.3125 10.8125 -26.3125 10.8125 -26 8 C-7.48466342 -0.61099293 -7.48466342 -0.61099293 0 0 Z M-25 11 C-24.67 11.99 -24.34 12.98 -24 14 C-21.17670081 15.41164959 -18.7709921 15.13206965 -15.625 15.125 C-14.48289062 15.12757813 -13.34078125 15.13015625 -12.1640625 15.1328125 C-8.4822614 14.99916175 -8.4822614 14.99916175 -5 14 C-1.81829392 9.49258305 -0.45009183 6.63655874 -1 1 C-9.27041611 1 -18.02497139 6.86077847 -25 11 Z " fill="#374A66" transform="translate(781,340)"/>
<path d="M0 0 C0 0.33 0 0.66 0 1 C-1.25296875 1.27714844 -2.5059375 1.55429687 -3.796875 1.83984375 C-10.26399395 3.27684062 -16.7215536 4.75566192 -23.1796875 6.23242188 C-24.58347656 6.55243164 -24.58347656 6.55243164 -26.015625 6.87890625 C-26.85383789 7.0704126 -27.69205078 7.26191895 -28.55566406 7.45922852 C-34.1047202 8.68687128 -39.14037937 9.18281617 -44.8125 9.1875 C-45.58142578 9.19974609 -46.35035156 9.21199219 -47.14257812 9.22460938 C-52.42008198 9.23797014 -56.92771664 8.46326989 -62 7 C-62 6.67 -62 6.34 -62 6 C-60.09154297 6.05220703 -60.09154297 6.05220703 -58.14453125 6.10546875 C-40.61782695 6.43511409 -24.01911241 4.47603202 -7.15234375 -0.328125 C-4.20142114 -0.95707009 -2.7634779 -1.07506871 0 0 Z " fill="#384A66" transform="translate(748,517)"/>
<path d="M0 0 C-4.00952686 1.61396145 -7.38095264 0.26651203 -11.3125 -0.9375 C-16.27469861 -2.45470099 -20.77278242 -3.55634713 -26 -3 C-28.79102246 -1.34156637 -31.08055053 0.58793511 -33.5703125 2.6640625 C-36 4 -36 4 -38.56640625 3.34375 C-39.36949219 2.9003125 -40.17257812 2.456875 -41 2 C-41.66644531 1.64679687 -42.33289063 1.29359375 -43.01953125 0.9296875 C-44.6796875 -0.046875 -46.33984375 -1.0234375 -48 -2 C-47.34 -2.66 -46.68 -3.32 -46 -4 C-45.0925 -3.505 -44.185 -3.01 -43.25 -2.5 C-39.99126962 -0.72062788 -39.99126962 -0.72062788 -36 -1 C-33.76514378 -2.0396335 -33.76514378 -2.0396335 -31.5625 -3.4375 C-21.03610903 -9.86317518 -10.39003045 -4.5716134 0 0 Z " fill="#374A66" transform="translate(685,522)"/>
<path d="M0 0 C0.33 0 0.66 0 1 0 C1 10.89 1 21.78 1 33 C-0.485 33.495 -0.485 33.495 -2 34 C-3.29554714 28.30928497 -3.18404728 22.74842864 -3.1875 16.9375 C-3.19974609 15.84888672 -3.21199219 14.76027344 -3.22460938 13.63867188 C-3.22654297 12.59130859 -3.22847656 11.54394531 -3.23046875 10.46484375 C-3.23457764 9.512146 -3.23868652 8.55944824 -3.24291992 7.57788086 C-2.95570974 4.52998908 -2.19462416 2.19462416 0 0 Z " fill="#4E5355" transform="translate(573,448)"/>
<path d="M0 0 C0.99 0.33 1.98 0.66 3 1 C-4.66786655 6.65372649 -12.66504253 11.42276916 -21 16 C-21.76570312 16.42539062 -22.53140625 16.85078125 -23.3203125 17.2890625 C-29.02372322 20.31394835 -35.48535378 23 -42 23 C-42 22.34 -42 21.68 -42 21 C-36.74111108 18.43893353 -31.81930759 16.61801686 -26.078125 15.50390625 C-23.14647567 14.79303639 -20.64584711 13.41972284 -18 12 C-17.34 12 -16.68 12 -16 12 C-15.67 11.01 -15.34 10.02 -15 9 C-12.63671875 7.5 -12.63671875 7.5 -9.6875 6 C-5.5835574 3.89879252 -5.5835574 3.89879252 -1.83203125 1.25 C-0.92517578 0.63125 -0.92517578 0.63125 0 0 Z " fill="#3D60A4" transform="translate(791,522)"/>
<path d="M0 0 C0.66 0 1.32 0 2 0 C5.41076483 12.14444169 4.15610074 29.92142534 -1.1015625 41.40625 C-1.39804687 41.9321875 -1.69453125 42.458125 -2 43 C-1.85761163 40.95809019 -1.71092972 38.91647955 -1.5625 36.875 C-1.48128906 35.73804688 -1.40007813 34.60109375 -1.31640625 33.4296875 C-1 30 -1 30 -0.46875 27.15625 C0.15422911 22.96152399 0.10638564 18.85827673 0.0625 14.625 C0.05798828 13.79355469 0.05347656 12.96210938 0.04882812 12.10546875 C0.03713164 10.07028103 0.01919935 8.03513077 0 6 C-1.99786055 6.8529475 -1.99786055 6.8529475 -4 8 C-4.80528889 10.05000871 -4.80528889 10.05000871 -5 12 C-5.66 12 -6.32 12 -7 12 C-6.1875 9.5625 -6.1875 9.5625 -5 7 C-4.01 6.67 -3.02 6.34 -2 6 C-0.77479736 2.99152582 -0.77479736 2.99152582 0 0 Z " fill="#3D5FA1" transform="translate(820,449)"/>
<path d="M0 0 C5.95703125 -0.29296875 5.95703125 -0.29296875 8 0 C8.99 0.99 9.98 1.98 11 3 C6.545 2.01 6.545 2.01 2 1 C2.80442191 7.06423195 2.80442191 7.06423195 5.9375 12 C9.19955953 13.58160462 11.85225735 14.1572703 15.4375 14.1875 C16.58025391 14.20876953 16.58025391 14.20876953 17.74609375 14.23046875 C20.23347315 13.97612666 21.84808106 13.24017196 24 12 C22.96706853 9.17427942 22.32047018 8.17021695 19.6171875 6.734375 C18.71226562 6.40953125 17.80734375 6.0846875 16.875 5.75 C15.96492187 5.41484375 15.05484375 5.0796875 14.1171875 4.734375 C13.41851563 4.49203125 12.71984375 4.2496875 12 4 C16.45552099 2.55073163 18.86856813 3.8967256 23 6 C25 7.3125 25 7.3125 26 9 C25.56521739 14.43478261 25.56521739 14.43478261 24 16 C21.58646168 16.18153617 19.22875181 16.27814571 16.8125 16.3125 C15.49894531 16.34988281 14.18539062 16.38726562 12.83203125 16.42578125 C7.69414516 15.85490502 4.83244423 13.71028128 1.125 10.25 C-0.59889287 6.80221427 -0.19124549 3.82490982 0 0 Z " fill="#374B6A" transform="translate(627,341)"/>
<path d="M0 0 C1.485 0.99 1.485 0.99 3 2 C3.34057617 4.61376953 3.34057617 4.61376953 3.29296875 7.8828125 C3.28330078 9.04941406 3.27363281 10.21601563 3.26367188 11.41796875 C3.23853516 12.64128906 3.21339844 13.86460937 3.1875 15.125 C3.17396484 16.35605469 3.16042969 17.58710938 3.14648438 18.85546875 C3.11103543 21.90407843 3.06162079 24.951825 3 28 C2.34 28 1.68 28 1 28 C1 30.31 1 32.62 1 35 C0.67 35 0.34 35 0 35 C0 23.45 0 11.9 0 0 Z " fill="#3B4041" transform="translate(832,267)"/>
<path d="M0 0 C0.66 0 1.32 0 2 0 C5.16679538 7.36356791 7.39765796 14.32069467 8.421875 22.27734375 C8.57140625 23.42332031 8.7209375 24.56929688 8.875 25.75 C8.99617187 26.81734375 9.11734375 27.8846875 9.2421875 28.984375 C10.12248872 32.48742932 11.58378773 34.3587963 14 37 C11.08482708 35.92598892 9.22189824 35.22189824 7 33 C6.41389153 30.49145576 5.92509398 28.03582574 5.5 25.5 C5.24123934 24.04290585 4.98212526 22.58587443 4.72265625 21.12890625 C4.59906738 20.42008301 4.47547852 19.71125977 4.34814453 18.98095703 C3.21732891 12.54656855 1.90252532 6.25115464 0 0 Z " fill="#354967" transform="translate(601,468)"/>
<path d="M0 0 C0.61328125 1.82421875 0.61328125 1.82421875 1 4 C-0.30208796 6.02048131 -1.63988391 8.01811655 -3 10 C-3.72166191 12.31691454 -4.40059529 14.64848923 -5 17 C-5.33 17.33 -5.66 17.66 -6 18 C-6.18554737 19.53739248 -6.32319202 21.08067583 -6.4375 22.625 C-6.96249286 28.35890639 -7.7506583 33.12598745 -11 38 C-10.71928021 34.81143836 -10.4234285 31.62444908 -10.125 28.4375 C-10.04636719 27.54224609 -9.96773437 26.64699219 -9.88671875 25.72460938 C-9.14461 17.93246749 -7.78550692 11.67826038 -3.375 5.0625 C-2.74335937 4.10472656 -2.11171875 3.14695312 -1.4609375 2.16015625 C-0.97882812 1.44730469 -0.49671875 0.73445313 0 0 Z " fill="#3C61A3" transform="translate(812,461)"/>
<path d="M0 0 C0.33 0 0.66 0 1 0 C1 8.25 1 16.5 1 25 C0.34 25.33 -0.32 25.66 -1 26 C-1.40729228 28.32156597 -1.74438677 30.6568787 -2 33 C-2.33 33 -2.66 33 -3 33 C-3 23.76 -3 14.52 -3 5 C-2.34 5 -1.68 5 -1 5 C-0.67 3.35 -0.34 1.7 0 0 Z " fill="#525658" transform="translate(775,414)"/>
<path d="M0 0 C2.1519437 3.22791555 2.20086443 4.28400809 2 8 C1.34 8 0.68 8 0 8 C0 19.55 0 31.1 0 43 C-0.99 43.495 -0.99 43.495 -2 44 C-2.04952523 38.53736689 -2.08577896 33.07486518 -2.10986328 27.61206055 C-2.11990615 25.75461551 -2.13354304 23.89718621 -2.15087891 22.03979492 C-2.17520261 19.36633409 -2.18650033 16.69308274 -2.1953125 14.01953125 C-2.20563507 13.19226028 -2.21595764 12.36498932 -2.22659302 11.51264954 C-2.22742519 7.21340985 -1.99986069 3.92014215 0 0 Z " fill="#3B4143" transform="translate(834,440)"/>
<path d="M0 0 C0.33 0.66 0.66 1.32 1 2 C-3.91971624 13.2712902 -12.58917884 23.51807904 -23 30 C-21.4705003 26.55862568 -19.54630448 23.7777867 -17 21 C-16.01 21 -15.02 21 -14 21 C-14 20.34 -14 19.68 -14 19 C-13.34 19 -12.68 19 -12 19 C-12 18.01 -12 17.02 -12 16 C-11.34 16 -10.68 16 -10 16 C-10 15.34 -10 14.68 -10 14 C-9.34 14 -8.68 14 -8 14 C-7.87625 13.195625 -7.7525 12.39125 -7.625 11.5625 C-7.41875 10.716875 -7.2125 9.87125 -7 9 C-6.34 8.67 -5.68 8.34 -5 8 C-3.91852299 6.38240139 -3.91852299 6.38240139 -2.9375 4.5 C-1.08071749 1.08071749 -1.08071749 1.08071749 0 0 Z " fill="#3D60A3" transform="translate(817,492)"/>
<path d="M0 0 C0.33 0 0.66 0 1 0 C1.00410889 0.73412109 1.00821777 1.46824219 1.01245117 2.22460938 C1.15476351 16.77006926 1.8131286 29.36693935 7 43 C7.37341632 44.6581463 7.72363159 46.32294622 8 48 C7.34 47.67 6.68 47.34 6 47 C6 46.34 6 45.68 6 45 C5.34 45 4.68 45 4 45 C4 43.35 4 41.7 4 40 C3.34 40 2.68 40 2 40 C0.47433307 34.57306018 -0.24113699 29.90098685 -0.1953125 24.21875 C-0.1924826 23.51979614 -0.18965271 22.82084229 -0.18673706 22.10070801 C-0.1756727 19.90028684 -0.15059606 17.70029507 -0.125 15.5 C-0.11495235 13.99479761 -0.10582965 12.48958874 -0.09765625 10.984375 C-0.07577893 7.32278062 -0.04134696 3.66143232 0 0 Z " fill="#364C70" transform="translate(585,452)"/>
<path d="M0 0 C10.05329086 9.12325073 11.97032008 21.19857399 13 34 C13.31136068 36.00353828 13.63675234 38.00521624 14 40 C12.13889138 38.41869642 11.11201723 37.44767744 10.51098633 35.0456543 C10.45193115 34.31258057 10.39287598 33.57950684 10.33203125 32.82421875 C10.24735596 32.00236084 10.16268066 31.18050293 10.07543945 30.33374023 C9.98866943 29.46048096 9.90189941 28.58722168 9.8125 27.6875 C8.77169507 18.99108384 6.44556772 12.92742785 1.64453125 5.65234375 C0 3 0 3 0 0 Z " fill="#3E62A4" transform="translate(594,459)"/>
<path d="M0 0 C0.66 0 1.32 0 2 0 C3.5078125 1.75 3.5078125 1.75 5.125 4 C5.66382813 4.7425 6.20265625 5.485 6.7578125 6.25 C7.16773438 6.8275 7.57765625 7.405 8 8 C7.67 8.66 7.34 9.32 7 10 C5.35 8.35 3.7 6.7 2 5 C1.90079709 16.05561292 1.87479505 26.98906587 3 38 C0.2664341 32.89734365 -0.12221568 28.8429013 -0.09765625 23.046875 C-0.0962413 22.38665344 -0.09482635 21.72643188 -0.09336853 21.04620361 C-0.08779245 18.94742206 -0.07524447 16.84874905 -0.0625 14.75 C-0.0574819 13.32291821 -0.05291954 11.89583475 -0.04882812 10.46875 C-0.03783088 6.97913168 -0.0205828 3.48957644 0 0 Z " fill="#3D61A4" transform="translate(586,449)"/>
<path d="M0 0 C4.03164412 2.01582206 5.60857906 3.28001188 8 7 C7.75 9.3125 7.75 9.3125 7 11 C6.01 10.67 5.02 10.34 4 10 C3.67 13.63 3.34 17.26 3 21 C2.67 21 2.34 21 2 21 C1.34 14.07 0.68 7.14 0 0 Z " fill="#414646" transform="translate(679,318)"/>
<path d="M0 0 C0.33 0 0.66 0 1 0 C1.02684679 2.64590014 1.04676357 5.29153096 1.0625 7.9375 C1.07087891 8.69224609 1.07925781 9.44699219 1.08789062 10.22460938 C1.09652441 12.14994313 1.05224333 14.07535581 1 16 C0.67 16.33 0.34 16.66 0 17 C-0.15582303 18.34015221 -0.25044142 19.68758903 -0.31640625 21.03515625 C-0.37924805 22.24848633 -0.37924805 22.24848633 -0.44335938 23.48632812 C-0.48267578 24.33646484 -0.52199219 25.18660156 -0.5625 26.0625 C-0.60568359 26.91650391 -0.64886719 27.77050781 -0.69335938 28.65039062 C-0.79976702 30.76672037 -0.90041731 32.88333813 -1 35 C-1.33 35 -1.66 35 -2 35 C-2.04952706 30.65838175 -2.08577954 26.31691425 -2.10986328 21.97509766 C-2.11990591 20.49883153 -2.13354265 19.02258521 -2.15087891 17.54638672 C-2.17520421 15.42149966 -2.1865004 13.29687615 -2.1953125 11.171875 C-2.20578613 9.8940918 -2.21625977 8.61630859 -2.22705078 7.29980469 C-2.01550278 4.22530701 -1.63126908 2.56261648 0 0 Z " fill="#373C3C" transform="translate(575,259)"/>
<path d="M0 0 C5.67301327 0.1647336 11.13409398 1.87490184 16.58984375 3.3125 C17.70294922 3.59867188 18.81605469 3.88484375 19.96289062 4.1796875 C22.69473449 4.88316661 25.42434356 5.59428686 28.15234375 6.3125 C28.15234375 6.6425 28.15234375 6.9725 28.15234375 7.3125 C23.33631898 6.93027581 18.62173614 6.4312509 13.87890625 5.5078125 C12.75730103 5.29185425 12.75730103 5.29185425 11.61303711 5.0715332 C10.11661044 4.77758364 8.62246627 4.4717237 7.13110352 4.15307617 C2.81424303 3.3097571 0.05965824 3.18612257 -3.84765625 5.3125 C-4.17765625 4.3225 -4.50765625 3.3325 -4.84765625 2.3125 C-2.84765625 0.3125 -2.84765625 0.3125 0 0 Z " fill="#3D61A7" transform="translate(661.84765625,517.6875)"/>
<path d="M0 0 C3.73487777 0.4979837 5.81237635 0.87491756 9 3 C9 3.66 9 4.32 9 5 C10.32 5 11.64 5 13 5 C14.4375 6.3125 14.4375 6.3125 16 8 C16.86625 8.495 17.7325 8.99 18.625 9.5 C21 11 21 11 22 14 C17.1669269 12.32554948 13.0526537 9.70850503 8.75 7 C8.0178125 6.54882812 7.285625 6.09765625 6.53125 5.6328125 C5.83515625 5.19710938 5.1390625 4.76140625 4.421875 4.3125 C3.78862305 3.91675781 3.15537109 3.52101563 2.50292969 3.11328125 C1 2 1 2 0 0 Z " fill="#374965" transform="translate(615,505)"/>
<path d="M0 0 C0.66 0 1.32 0 2 0 C2.53341184 1.57914015 3.05125763 3.16354387 3.5625 4.75 C3.85253906 5.63171875 4.14257812 6.5134375 4.44140625 7.421875 C5.01697435 10.07834316 4.89248371 11.47031106 4 14 C3.67 12.35 3.34 10.7 3 9 C2.34 9 1.68 9 1 9 C1.165 9.7425 1.33 10.485 1.5 11.25 C2 14 2 14 2 18 C1.34 18 0.68 18 0 18 C0 12.06 0 6.12 0 0 Z " fill="#3F4345" transform="translate(832,359)"/>
<path d="M0 0 C3.63 0.33 7.26 0.66 11 1 C11 1.99 11 2.98 11 4 C5.06 4 -0.88 4 -7 4 C-6.67 3.34 -6.34 2.68 -6 2 C-2.9375 1.375 -2.9375 1.375 0 1 C0 0.67 0 0.34 0 0 Z " fill="#3D4244" transform="translate(687,236)"/>
<path d="M0 0 C4.65642214 1.439909 8.99319232 3.32662536 13.375 5.4375 C18.51265436 7.87809062 23.62024969 10.13355601 29 12 C26 14 26 14 24 14 C24 13.34 24 12.68 24 12 C22.205625 11.4740625 22.205625 11.4740625 20.375 10.9375 C15.89701649 9.44960772 11.72000287 7.52806934 7.5 5.4375 C6.87657715 5.13255615 6.2531543 4.8276123 5.61083984 4.51342773 C1.12379358 2.24758716 1.12379358 2.24758716 0 0 Z " fill="#364864" transform="translate(629,533)"/>
<path d="M0 0 C0.99 0.33 1.98 0.66 3 1 C2.01 2.485 2.01 2.485 1 4 C1 5.32 1 6.64 1 8 C-2.3 8 -5.6 8 -9 8 C-9 7.34 -9 6.68 -9 6 C-7.13671875 4.45703125 -7.13671875 4.45703125 -4.6875 2.8125 C-3.88699219 2.26207031 -3.08648438 1.71164062 -2.26171875 1.14453125 C-1.14216797 0.57798828 -1.14216797 0.57798828 0 0 Z " fill="#3F4344" transform="translate(687,472)"/>
<path d="M0 0 C0.33 0 0.66 0 1 0 C1.33 3.96 1.66 7.92 2 12 C2.33 12 2.66 12 3 12 C3 17.28 3 22.56 3 28 C0.29903938 25.29903938 0.0589754 23.28502949 -0.11352539 19.52636719 C-0.10828857 18.62563477 -0.10305176 17.72490234 -0.09765625 16.796875 C-0.09443359 15.8171875 -0.09121094 14.8375 -0.08789062 13.828125 C-0.07951172 12.81234375 -0.07113281 11.7965625 -0.0625 10.75 C-0.05798828 9.71875 -0.05347656 8.6875 -0.04882812 7.625 C-0.03706088 5.08327427 -0.02062011 2.54166681 0 0 Z " fill="#363A3C" transform="translate(773,427)"/>
<path d="M0 0 C1.60746056 0.42523816 3.21089836 0.86570126 4.8125 1.3125 C6.15248047 1.67794922 6.15248047 1.67794922 7.51953125 2.05078125 C10.05247738 3.0200819 11.2716496 3.95009604 13 6 C12.1875 7.9375 12.1875 7.9375 11 10 C8.21398777 10.92867074 6.38933911 11.16342217 3.5 11.1875 C2.33984375 11.20876953 2.33984375 11.20876953 1.15625 11.23046875 C-1 11 -1 11 -4 9 C-2.1746875 9.0309375 -2.1746875 9.0309375 -0.3125 9.0625 C2.91977322 9.06824116 5.84934741 8.78766315 9 8 C9.33 7.01 9.66 6.02 10 5 C9.04287109 4.70996094 9.04287109 4.70996094 8.06640625 4.4140625 C7.24011719 4.15367187 6.41382813 3.89328125 5.5625 3.625 C4.73878906 3.36976563 3.91507813 3.11453125 3.06640625 2.8515625 C1 2 1 2 0 0 Z " fill="#3B5D9C" transform="translate(639,345)"/>
<path d="M0 0 C0.66 0.33 1.32 0.66 2 1 C2 6.61 2 12.22 2 18 C-0.35953094 15.64046906 -0.49141413 14.22104383 -1 11 C-1.33 11 -1.66 11 -2 11 C-1.85957123 9.35369672 -1.71250671 7.70795821 -1.5625 6.0625 C-1.48128906 5.14597656 -1.40007813 4.22945313 -1.31640625 3.28515625 C-1 1 -1 1 0 0 Z " fill="#3C4143" transform="translate(574,360)"/>
<path d="M0 0 C2.1875 -0.25 2.1875 -0.25 5 0 C7.5 2 7.5 2 10 4 C12.62778044 4.50135199 12.62778044 4.50135199 15 4 C15.66 3.34 16.32 2.68 17 2 C18.98821313 1.60235737 20.98944339 1.26224651 23 1 C20.43910967 3.98770538 17.63816086 5.54473565 14 7 C10.21898011 6.58674008 7.45320796 5.33843449 4.1875 3.4375 C3.39730469 2.98246094 2.60710938 2.52742187 1.79296875 2.05859375 C1.20128906 1.70925781 0.60960937 1.35992188 0 1 C0 0.67 0 0.34 0 0 Z " fill="#344868" transform="translate(748,518)"/>
<path d="M0 0 C0 0.66 0 1.32 0 2 C-6.56967515 5.48192783 -12.66873967 8.59014224 -20 10 C-20 9.34 -20 8.68 -20 8 C-19.20335937 7.67386719 -18.40671875 7.34773437 -17.5859375 7.01171875 C-10.89236181 4.29348041 -10.89236181 4.29348041 -4.375 1.1875 C-2 0 -2 0 0 0 Z " fill="#364764" transform="translate(776,535)"/>
<path d="M0 0 C3.36720387 1.39332574 4.9859524 2.9789286 7 6 C6.01 8.31 5.02 10.62 4 13 C2.57055055 10.64561267 1.91338739 9.51967567 2.375 6.75 C2.58125 6.1725 2.7875 5.595 3 5 C2.01 5 1.02 5 0 5 C0 3.35 0 1.7 0 0 Z " fill="#3A4040" transform="translate(788,187)"/>
<path d="M0 0 C-0.33 6.27 -0.66 12.54 -1 19 C-1.66 19 -2.32 19 -3 19 C-3 14.71 -3 10.42 -3 6 C-3.99 6.33 -4.98 6.66 -6 7 C-2.86206897 0 -2.86206897 0 0 0 Z " fill="#3C4040" transform="translate(729,318)"/>
<path d="M0 0 C6.625 0.75 6.625 0.75 10 3 C7.36 2.67 4.72 2.34 2 2 C2.59861742 4.35171131 3.26924352 6.6859378 4 9 C4.66 9.33 5.32 9.66 6 10 C6 10.66 6 11.32 6 12 C2.83884224 10.63016497 2.0072908 10.0109362 0 7 C-0.07905064 4.66800612 -0.08798769 2.33167378 0 0 Z " fill="#3B5FA1" transform="translate(629,342)"/>
<path d="M0 0 C0.33 0 0.66 0 1 0 C1 4.95 1 9.9 1 15 C0.34 15 -0.32 15 -1 15 C-3.54046832 10.62474901 -2.75539749 7.55208112 -1.60546875 2.890625 C-1 1 -1 1 0 0 Z " fill="#3A3E40" transform="translate(575,404)"/>
<path d="M0 0 C0.33 0 0.66 0 1 0 C1.02690844 2.62506802 1.04679404 5.24986173 1.0625 7.875 C1.07087891 8.62136719 1.07925781 9.36773437 1.08789062 10.13671875 C1.11328125 15.7734375 1.11328125 15.7734375 0 18 C-0.66 18 -1.32 18 -2 18 C-1.85980308 15.18711295 -1.71312045 12.37483115 -1.5625 9.5625 C-1.52318359 8.76005859 -1.48386719 7.95761719 -1.44335938 7.13085938 C-1.11328125 1.11328125 -1.11328125 1.11328125 0 0 Z " fill="#393E41" transform="translate(575,313)"/>
<path d="M0 0 C0.44988281 0.35191406 0.89976562 0.70382812 1.36328125 1.06640625 C7.02137302 5.40919012 12.94411492 9.23733611 19 13 C18.01 13.495 18.01 13.495 17 14 C10.73103078 10.99611891 5.08459517 6.72652509 0 2 C0 1.34 0 0.68 0 0 Z " fill="#354867" transform="translate(610,519)"/>
<path d="M0 0 C2.96175123 0.61277612 4.38058783 1.25372522 7 3 C11.22145032 2.62475997 15.0212172 1.42099386 19 0 C19 0.66 19 1.32 19 2 C15.53245404 4.81738109 12.46484338 5.51955347 8.00390625 5.3671875 C4.6265882 4.7483417 2.62911639 3.16902102 0 1 C0 0.67 0 0.34 0 0 Z " fill="#3B60A2" transform="translate(751,521)"/>
<path d="M0 0 C0.99 0.33 1.98 0.66 3 1 C2.34 1 1.68 1 1 1 C1 1.66 1 2.32 1 3 C1.99 2.67 2.98 2.34 4 2 C5.56118428 1.93259135 7.1250252 1.91485544 8.6875 1.9375 C9.89986328 1.95103516 9.89986328 1.95103516 11.13671875 1.96484375 C12.05904297 1.98224609 12.05904297 1.98224609 13 2 C13 2.66 13 3.32 13 4 C7.72 4 2.44 4 -3 4 C-2.67 3.01 -2.34 2.02 -2 1 C-1.34 0.67 -0.68 0.34 0 0 Z " fill="#3B4042" transform="translate(638,236)"/>
<path d="M0 0 C0.66 0.33 1.32 0.66 2 1 C3.5125 8.2875 3.5125 8.2875 2 12 C1.34 12.66 0.68 13.32 0 14 C-1 13 -1 13 -1.1328125 10.8203125 C-1.13023437 9.93085938 -1.12765625 9.04140625 -1.125 8.125 C-1.12757813 7.24070313 -1.13015625 6.35640625 -1.1328125 5.4453125 C-1 3 -1 3 0 0 Z " fill="#3E4344" transform="translate(625,209)"/>
<path d="M0 0 C2 2 2 2 2 5 C2.66 5 3.32 5 4 5 C3.74438677 7.3431213 3.40729228 9.67843403 3 12 C2.01 12.495 2.01 12.495 1 13 C-0.32229189 10.35541621 -0.09677194 8.32238699 -0.0625 5.375 C-0.05347656 4.37210937 -0.04445313 3.36921875 -0.03515625 2.3359375 C-0.02355469 1.56507813 -0.01195312 0.79421875 0 0 Z " fill="#3D4143" transform="translate(832,407)"/>
<path d="M0 0 C0.5497272 5.63470383 -1.04952165 8.38987758 -4 13 C-4.66 12.67 -5.32 12.34 -6 12 C-5.525625 11.0925 -5.05125 10.185 -4.5625 9.25 C-3.35371179 6.73572051 -2.52006114 4.70431791 -2 2 C-4.31 2.33 -6.62 2.66 -9 3 C-5.73209435 0.82139623 -3.91954654 0 0 0 Z " fill="#3A5D9B" transform="translate(780,341)"/>
<path d="M0 0 C3.63195496 1.21065165 4.42896192 2.53691126 6.6875 5.5625 C7.31011719 6.38878906 7.93273437 7.21507812 8.57421875 8.06640625 C9.04472656 8.70449219 9.51523437 9.34257812 10 10 C9.01 11.485 9.01 11.485 8 13 C8 12.34 8 11.68 8 11 C7.34 11 6.68 11 6 11 C5.67 10.01 5.34 9.02 5 8 C4.34 7.67 3.68 7.34 3 7 C3 6.01 3 5.02 3 4 C2.01 3.67 1.02 3.34 0 3 C0 2.01 0 1.02 0 0 Z " fill="#4B5051" transform="translate(586,389)"/>
<path d="M0 0 C4.62 0 9.24 0 14 0 C14 0.66 14 1.32 14 2 C15.32 2.33 16.64 2.66 18 3 C15.36 3.33 12.72 3.66 10 4 C9.67 3.34 9.34 2.68 9 2 C6.87423218 1.53348793 6.87423218 1.53348793 4.4375 1.375 C3.61121094 1.30023438 2.78492188 1.22546875 1.93359375 1.1484375 C1.29550781 1.09945312 0.65742187 1.05046875 0 1 C0 0.67 0 0.34 0 0 Z " fill="#3C4142" transform="translate(712,248)"/>
<path d="M0 0 C2.02045442 0.60183749 4.02111039 1.27306096 6 2 C6.33 2.66 6.66 3.32 7 4 C6.67 4.66 6.34 5.32 6 6 C3.23723823 5.47731534 0.6739124 4.89130413 -2 4 C-2 2 -2 2 0 0 Z " fill="#3D4345" transform="translate(640,338)"/>
<path d="M0 0 C0.66 0 1.32 0 2 0 C3.32286246 4.96073422 3.08893197 9.91111512 3 15 C2.34 15 1.68 15 1 15 C0.67 15.66 0.34 16.32 0 17 C0 11.39 0 5.78 0 0 Z " fill="#3E4242" transform="translate(584,304)"/>
<path d="M0 0 C3.58071317 2.267785 4.4883281 4.12634076 6 8 C8.02040748 10.27191416 8.02040748 10.27191416 10 12 C9.67 12.99 9.34 13.98 9 15 C0 4.89320388 0 4.89320388 0 0 Z " fill="#3D61A3" transform="translate(592,495)"/>
<path d="M0 0 C0.33 1.65 0.66 3.3 1 5 C0.67 4.34 0.34 3.68 0 3 C-5.01535052 3.32960216 -5.01535052 3.32960216 -9 6 C-9 4.35 -9 2.7 -9 1 C-6.04335481 -0.4783226 -3.25770263 -0.06032783 0 0 Z " fill="#4D5153" transform="translate(724,418)"/>
<path d="M0 0 C0.33 0.66 0.66 1.32 1 2 C2.36125 1.8453125 2.36125 1.8453125 3.75 1.6875 C7 2 7 2 9.375 4.5 C9.91125 5.325 10.4475 6.15 11 7 C10.4225 6.690625 9.845 6.38125 9.25 6.0625 C7.15705816 5.07416636 5.25464725 4.4831387 3 4 C2.01 5.485 2.01 5.485 1 7 C0.01 6.67 -0.98 6.34 -2 6 C-2 5.34 -2 4.68 -2 4 C-1.34 4 -0.68 4 0 4 C0 2.68 0 1.36 0 0 Z " fill="#3F4445" transform="translate(767,396)"/>
<path d="M0 0 C-0.66 1.32 -1.32 2.64 -2 4 C-3.98 4 -5.96 4 -8 4 C-7.6875 2.0625 -7.6875 2.0625 -7 0 C-3.86650268 -1.04449911 -3.01031744 -0.93423645 0 0 Z " fill="#4E5254" transform="translate(728,506)"/>
<path d="M0 0 C0 0.66 0 1.32 0 2 C-0.969375 2.268125 -1.93875 2.53625 -2.9375 2.8125 C-3.948125 3.204375 -4.95875 3.59625 -6 4 C-6.33 4.99 -6.66 5.98 -7 7 C-10.5625 8.1875 -10.5625 8.1875 -14 9 C-10.73787201 5.33010602 -5.2007339 0 0 0 Z " fill="#3D60A1" transform="translate(792,507)"/>
<path d="M0 0 C3.63 0 7.26 0 11 0 C11 0.33 11 0.66 11 1 C8.69 1 6.38 1 4 1 C4 1.66 4 2.32 4 3 C4.66 3 5.32 3 6 3 C5.67 4.32 5.34 5.64 5 7 C0 1.125 0 1.125 0 0 Z " fill="#5E6061" transform="translate(675,435)"/>
<path d="M0 0 C0.66 0 1.32 0 2 0 C2 4.29 2 8.58 2 13 C1.34 13 0.68 13 0 13 C0.020625 12.071875 0.04125 11.14375 0.0625 10.1875 C0.15769604 6.97713989 0.15769604 6.97713989 -1 4 C-0.5625 1.8125 -0.5625 1.8125 0 0 Z " fill="#353C3E" transform="translate(782,211)"/>
<path d="M0 0 C3.63 0 7.26 0 11 0 C11.33 0.99 11.66 1.98 12 3 C11.319375 2.835 10.63875 2.67 9.9375 2.5 C6.5835178 1.92910941 3.39610195 1.93340977 0 2 C0 1.34 0 0.68 0 0 Z " fill="#3C4143" transform="translate(728,568)"/>
<path d="M0 0 C2.64 0 5.28 0 8 0 C8 0.66 8 1.32 8 2 C7.01 2 6.02 2 5 2 C5 2.66 5 3.32 5 4 C3.35 3.67 1.7 3.34 0 3 C0 2.01 0 1.02 0 0 Z " fill="#3C4446" transform="translate(648,560)"/>
<path d="M0 0 C0.66 1.32 1.32 2.64 2 4 C0.35 5.65 -1.3 7.3 -3 9 C-3.66 8.67 -4.32 8.34 -5 8 C-3.35 5.36 -1.7 2.72 0 0 Z " fill="#4E5355" transform="translate(628,405)"/>
<path d="M0 0 C3.99500618 1.3697164 6.80009492 3.25722422 10 6 C8.35 6.33 6.7 6.66 5 7 C1.125 2.25 1.125 2.25 0 0 Z " fill="#4D504F" transform="translate(757,388)"/>
<path d="M0 0 C0.33 0 0.66 0 1 0 C1 3.96 1 7.92 1 12 C0.34 11.67 -0.32 11.34 -1 11 C-1.66 11.66 -2.32 12.32 -3 13 C-2.17812739 8.61667943 -1.09845718 4.32059823 0 0 Z " fill="#3B4043" transform="translate(823,260)"/>
<path d="M0 0 C0.556875 0.268125 1.11375 0.53625 1.6875 0.8125 C1.6875 1.4725 1.6875 2.1325 1.6875 2.8125 C0.98625 2.874375 0.285 2.93625 -0.4375 3 C-4.3457733 4.10451202 -6.31607248 6.09480992 -9.3125 8.8125 C-7.66495848 4.76853446 -4.80734346 -0.3897846 0 0 Z " fill="#363A3A" transform="translate(638.3125,397.1875)"/>
<path d="M0 0 C0.66 0.33 1.32 0.66 2 1 C2 1.66 2 2.32 2 3 C2.66 3 3.32 3 4 3 C4.66 4.65 5.32 6.3 6 8 C5.01 8 4.02 8 3 8 C1.02 4.535 1.02 4.535 -1 1 C-0.67 0.67 -0.34 0.34 0 0 Z " fill="#4C5254" transform="translate(585,513)"/>
<path d="M0 0 C2.97 0.33 5.94 0.66 9 1 C8.67 1.66 8.34 2.32 8 3 C5.35139573 3.59355614 2.70802678 3.74209269 0 4 C0 2.68 0 1.36 0 0 Z " fill="#3B3F41" transform="translate(671,423)"/>
<path d="M0 0 C1.98 0 3.96 0 6 0 C6 1.33333333 6 2.66666667 6 4 C4.02 4 2.04 4 0 4 C0 2.68 0 1.36 0 0 Z " fill="#3A3E40" transform="translate(727,424)"/>
<path d="M0 0 C1.10235591 3.3741029 0.97848812 4.06346006 -0.25 7.6875 C-2 11 -2 11 -5 12 C-4.731875 11.505 -4.46375 11.01 -4.1875 10.5 C-2.56124507 7.0763054 -1.30484829 3.55867715 0 0 Z " fill="#374E76" transform="translate(801,491)"/>
<path d="M0 0 C3.40312738 1.05875074 6.01353231 2.00902154 9 4 C8.67 4.99 8.34 5.98 8 7 C6.66382648 6.02471263 5.3311249 5.04466681 4 4.0625 C3.2575 3.51722656 2.515 2.97195313 1.75 2.41015625 C1.1725 1.94480469 0.595 1.47945313 0 1 C0 0.67 0 0.34 0 0 Z " fill="#505354" transform="translate(731,360)"/>
<path d="M0 0 C0.66 0 1.32 0 2 0 C2.33 2.31 2.66 4.62 3 7 C1.68 6.67 0.36 6.34 -1 6 C-0.67 4.02 -0.34 2.04 0 0 Z " fill="#3A3F40" transform="translate(589,225)"/>
<path d="M0 0 C0 0.66 0 1.32 0 2 C-0.99 2 -1.98 2 -3 2 C-3.33 2.99 -3.66 3.98 -4 5 C-5.98 5.33 -7.96 5.66 -10 6 C-2.6 0 -2.6 0 0 0 Z " fill="#364867" transform="translate(786,529)"/>
<path d="M0 0 C0.66 0 1.32 0 2 0 C1.50168276 3.68754757 0.89932357 5.60490662 -2 8 C-2 6.02 -2 4.04 -2 2 C-1.34 2 -0.68 2 0 2 C0 1.34 0 0.68 0 0 Z " fill="#4D5253" transform="translate(819,516)"/>
<path d="M0 0 C0.99 0.99 1.98 1.98 3 3 C2.01 3.495 2.01 3.495 1 4 C1 5.65 1 7.3 1 9 C0.34 8.67 -0.32 8.34 -1 8 C-1.04241723 5.66705225 -1.04092937 3.33297433 -1 1 C-0.67 0.67 -0.34 0.34 0 0 Z " fill="#3E4443" transform="translate(737,407)"/>
<path d="M0 0 C-3.67410785 1.17571451 -7.16929183 1.07366746 -11 1 C-11 0.34 -11 -0.32 -11 -1 C-6.99799622 -2.60080151 -3.95443764 -1.29279692 0 0 Z " fill="#383E41" transform="translate(668,351)"/>
<path d="M0 0 C0.66 0 1.32 0 2 0 C2.33 1.65 2.66 3.3 3 5 C2.34 5 1.68 5 1 5 C1 5.66 1 6.32 1 7 C0.34 7 -0.32 7 -1 7 C-1.04254356 5.00045254 -1.04080783 2.99958364 -1 1 C-0.67 0.67 -0.34 0.34 0 0 Z " fill="#4C5052" transform="translate(835,316)"/>
<path d="M0 0 C3.16115776 1.36983503 3.9927092 1.9890638 6 5 C5.01 5.495 5.01 5.495 4 6 C1.875 5.0625 1.875 5.0625 0 4 C0 2.68 0 1.36 0 0 Z " fill="#525657" transform="translate(744,491)"/>
<path d="M0 0 C0.99 0.33 1.98 0.66 3 1 C1.35 2.65 -0.3 4.3 -2 6 C-2.66 5.34 -3.32 4.68 -4 4 C-2.68 3.34 -1.36 2.68 0 2 C0 1.34 0 0.68 0 0 Z " fill="#515557" transform="translate(807,530)"/>
<path d="M0 0 C-0.66 1.32 -1.32 2.64 -2 4 C-4.64 3.34 -7.28 2.68 -10 2 C-10 1.67 -10 1.34 -10 1 C-3.375 0 -3.375 0 0 0 Z " fill="#3D4041" transform="translate(733,435)"/>
<path d="M0 0 C0.66 0 1.32 0 2 0 C2 2.31 2 4.62 2 7 C0 5.625 0 5.625 -2 4 C-2 3.34 -2 2.68 -2 2 C-1.34 2 -0.68 2 0 2 C0 1.34 0 0.68 0 0 Z " fill="#393E40" transform="translate(622,350)"/>
<path d="M0 0 C0.66666667 2.66666667 1.33333333 5.33333333 2 8 C1.34 8 0.68 8 0 8 C0 8.66 0 9.32 0 10 C-0.66 10 -1.32 10 -2 10 C-1.54177532 6.53058454 -1.10868317 3.32604951 0 0 Z " fill="#505656" transform="translate(781,211)"/>
<path d="M0 0 C1.65 0 3.3 0 5 0 C5 0.99 5 1.98 5 3 C3.02 3.33 1.04 3.66 -1 4 C-0.67 2.68 -0.34 1.36 0 0 Z " fill="#393F41" transform="translate(708,576)"/>
<path d="M0 0 C0.33 0 0.66 0 1 0 C1 2.64 1 5.28 1 8 C0.01 8.495 0.01 8.495 -1 9 C-1.625 5.625 -1.625 5.625 -2 2 C-1.34 1.34 -0.68 0.68 0 0 Z " fill="#34393A" transform="translate(783,471)"/>
<path d="M0 0 C2.875 -0.125 2.875 -0.125 6 0 C6.66 0.66 7.32 1.32 8 2 C5.69 2.33 3.38 2.66 1 3 C0.67 2.01 0.34 1.02 0 0 Z " fill="#363B3D" transform="translate(779,333)"/>
</svg>
